<svg width="70" height="70" viewBox="0 0 70 70" fill="none" xmlns="http://www.w3.org/2000/svg">
<circle cx="35" cy="35" r="35" fill="#FF8C75" fill-opacity="0.15"/>
<path d="M30.9721 20.0201C29.8216 20.1022 28.9118 20.5073 28.63 21.0649C28.5303 21.2527 28.5126 21.464 28.495 22.861C28.4716 24.2346 28.4481 24.5046 28.3424 24.892C28.1663 25.5435 27.9139 26.0131 27.5852 26.289C27.4267 26.4181 27.1626 26.6412 26.9924 26.7879C26.3995 27.281 25.8947 27.956 25.566 28.6839C25.2784 29.3237 25.1551 29.893 25.1199 30.6972C25.0906 31.3605 25.0671 31.4661 24.9145 31.7772C24.6914 32.2116 24.3158 33.3562 24.1984 33.9256C23.8697 35.5456 23.9518 37.512 24.4273 39.361C25.4134 43.2115 27.9257 46.2873 31.6001 48.148C36.3018 50.5311 39.5889 50.6133 41.6375 48.4004C42.377 47.6021 42.9229 46.5632 43.4747 44.9079C44.8541 40.7462 44.948 36.6139 43.7388 33.3621C43.416 32.5051 42.8349 31.3781 42.4357 30.8439C42.0542 30.3333 41.5024 29.7815 41.0446 29.4645L40.7629 29.2591L41.2207 29.2415C41.837 29.218 42.4944 29.3119 43.4453 29.5526C43.8738 29.6641 44.3317 29.758 44.4549 29.758C45.0184 29.758 45.67 29.2297 46.0574 28.4549C46.3391 27.8856 46.4272 27.4629 46.3978 26.8231C46.3567 25.9896 46.1337 25.6961 45.2356 25.2794C43.6097 24.5163 42.1188 24.1993 40.4811 24.258C39.1135 24.3109 38.1567 24.5515 36.9299 25.1502C36.1551 25.5259 35.3627 26.0483 34.7287 26.5942C34.4705 26.8173 34.2592 26.9934 34.2592 26.9875C34.2592 26.9757 34.3002 26.6529 34.3531 26.2655C34.4176 25.7842 34.4529 24.8744 34.4705 23.4187L34.4998 21.2762L34.3648 21.0414C33.9363 20.3077 32.598 19.9027 30.9721 20.0201ZM32.8504 21.1764C33.0617 21.2469 33.2906 21.3466 33.3669 21.3995C33.4961 21.4875 33.4961 21.4993 33.4022 21.6049C33.2085 21.8162 32.193 22.0686 31.4945 22.0686C30.7373 22.0686 29.4577 21.7106 29.5222 21.5227C29.5575 21.4053 29.8803 21.2527 30.3323 21.1295C30.9369 20.9651 32.281 20.9945 32.8504 21.1764ZM30.1503 22.908C30.5084 23.0019 30.7608 23.0254 31.5004 23.0254C32.375 23.0254 32.8563 22.955 33.4022 22.7378C33.5078 22.6967 33.5078 22.7436 33.4785 24.1583C33.4491 25.6727 33.3435 26.5942 33.0793 27.7212C32.9619 28.2025 32.9443 28.2377 32.8269 28.2025C31.5825 27.8327 30.0388 27.8562 28.8061 28.2671C27.955 28.5488 27.327 28.9128 26.4641 29.6171L26.2704 29.7815L26.3056 29.6054C26.3761 29.2826 26.8574 28.3786 27.1215 28.0675C27.2741 27.8914 27.5265 27.639 27.6967 27.5099C28.4011 26.9347 28.677 26.6353 28.9177 26.1716C29.2875 25.4555 29.4518 24.7452 29.487 23.6358C29.5164 22.8141 29.534 22.7143 29.6162 22.7436C29.669 22.7671 29.9097 22.8376 30.1503 22.908ZM41.9779 25.3263C42.606 25.4203 43.504 25.6433 43.8621 25.7959L44.0793 25.884L43.9325 26.0483C43.5158 26.4886 43.2164 27.2223 43.146 27.956C43.1225 28.2025 43.0873 28.408 43.0638 28.408C43.0462 28.408 42.7527 28.3669 42.4123 28.3141C41.6022 28.1908 40.4048 28.2319 39.7474 28.4021C38.685 28.6839 37.6636 29.3706 37.6636 29.8108C37.6636 29.9341 37.7164 30.0456 37.8104 30.1396C38.0393 30.3743 38.3093 30.3567 38.6145 30.0809C38.7319 29.9752 38.8787 29.8578 38.9432 29.8226C39.1193 29.7287 39.6887 29.8461 40.1289 30.0632C40.5926 30.2922 41.3909 31.067 41.7842 31.6716C42.5825 32.8983 43.2223 34.6593 43.4219 36.1795L43.4923 36.7372L43.3397 36.9426C43.2516 37.0541 43.0168 37.3124 42.8173 37.5179C41.2618 39.091 39.3776 39.6368 36.9534 39.2083C36.2079 39.0792 34.7287 38.6625 33.1732 38.1518C32.3045 37.8642 31.4475 37.5942 31.2714 37.5589C30.7314 37.4474 29.5633 37.5179 28.9998 37.6998C27.9022 38.0637 26.7811 39.0792 26.1589 40.2766C26.0473 40.4997 25.9358 40.6758 25.9182 40.6758C25.8947 40.6758 25.7715 40.3412 25.6365 39.9362C25.1199 38.3983 24.9086 36.7372 25.0319 35.2873C25.1434 33.9608 25.3665 33.1566 25.9006 32.0707C26.8985 30.0574 28.7122 28.9363 30.9662 28.9363C32.0169 28.9363 32.8563 29.1945 33.6839 29.7698C34.805 30.5504 35.9438 32.1529 36.519 33.7495C36.6012 33.9901 36.7303 34.2484 36.7949 34.3188C37.0649 34.6064 37.6049 34.3893 37.6049 33.9901C37.6049 33.5675 36.9123 32.0179 36.3253 31.1374C35.7149 30.2159 34.8931 29.3471 34.2181 28.9128C34.1124 28.8482 34.0244 28.766 34.0244 28.7367C34.0244 28.6134 35.5505 27.1812 36.0612 26.8231C37.8808 25.5494 39.9587 25.0211 41.9779 25.3263ZM45.3295 26.5003C45.4058 26.6177 45.4235 26.7468 45.4 27.1166C45.3648 27.6801 45.1241 28.2201 44.7602 28.5547C44.4549 28.8306 44.2965 28.813 44.1908 28.496C43.956 27.8034 44.6076 26.4064 45.1887 26.3594C45.2121 26.3536 45.2767 26.4181 45.3295 26.5003ZM43.5686 39.0733C43.4629 41.3449 42.9699 43.6048 42.1423 45.6357C41.5259 47.156 40.8039 48.0541 39.8061 48.5471C39.1017 48.8876 38.7084 48.9756 37.781 48.9756C36.6481 48.9756 35.8381 48.8054 34.2005 48.2067C33.3141 47.8839 31.6588 47.0856 30.9603 46.6453C29.2346 45.5536 27.7026 43.9805 26.693 42.2665L26.5111 41.9671L26.6285 41.6736C27.1567 40.3295 27.9902 39.2612 28.8296 38.8562C29.4107 38.5685 29.851 38.4864 30.5905 38.5216C31.2186 38.5509 31.289 38.5685 32.9091 39.1086C34.7111 39.7131 36.1023 40.0829 37.0884 40.2297C37.8691 40.3471 39.1956 40.353 39.8413 40.2356C41.0505 40.0242 42.2244 39.4314 43.2105 38.5333C43.4043 38.3572 43.5745 38.2164 43.5862 38.2105C43.598 38.2105 43.5921 38.5979 43.5686 39.0733Z" fill="#FF8C75"/>
<path d="M28.8061 30.433C27.8846 30.8967 27.1567 31.695 26.6461 32.7868C26.3761 33.3797 26.106 34.4597 26.0591 35.1406C26.0239 35.6571 26.0297 35.6806 26.1765 35.8274C26.3702 36.0211 26.6285 36.0269 26.8339 35.845C26.9689 35.7334 26.9982 35.6454 27.0452 35.2228C27.2683 33.2564 28.0607 31.9005 29.3696 31.2724C29.7218 31.0963 29.8627 30.9965 29.9155 30.8733C30.0388 30.568 29.8686 30.2628 29.5281 30.1924C29.399 30.1689 29.2288 30.2276 28.8061 30.433Z" fill="#FF8C75"/>
<path d="M30.2031 40.0242C29.4283 40.1827 28.8648 41.0162 29.0351 41.7558C29.2053 42.5247 29.7394 42.965 30.5025 42.965C30.9603 42.965 31.2656 42.8358 31.5708 42.5189C31.8525 42.2195 31.9758 41.9201 31.9758 41.5034C31.9817 40.9223 31.7117 40.4586 31.2303 40.1944C30.9134 40.0242 30.5201 39.9596 30.2031 40.0242ZM30.8429 41.1629C30.931 41.2451 30.9721 41.3508 30.9721 41.4917C30.9721 42.061 30.209 42.1491 30.0153 41.6032C29.9507 41.4212 30.0916 41.1395 30.2912 41.0514C30.5025 40.9634 30.6551 40.9927 30.8429 41.1629Z" fill="#FF8C75"/>
<path d="M35.6914 41.6384C35.3509 41.926 35.574 42.4954 36.026 42.4954C36.2784 42.4954 36.4897 42.2664 36.4897 41.9964C36.4897 41.5621 36.0201 41.3508 35.6914 41.6384Z" fill="#FF8C75"/>
<path d="M38.1684 41.6501C37.8515 41.973 38.0862 42.4954 38.55 42.4954C38.7026 42.4954 39.0137 42.1843 39.0137 42.0316C39.0137 41.5679 38.4913 41.3331 38.1684 41.6501Z" fill="#FF8C75"/>
<path d="M41.1796 41.6677C41.0798 41.7734 41.0094 41.9025 41.0094 41.9964C41.0094 42.1843 41.297 42.4954 41.479 42.4954C41.6492 42.4954 41.9251 42.3427 41.972 42.2312C42.0483 42.0258 42.0072 41.7851 41.8605 41.6442C41.6609 41.4388 41.4027 41.4505 41.1796 41.6677Z" fill="#FF8C75"/>
<path d="M33.1732 42.6422C32.868 42.9415 33.0793 43.4933 33.4902 43.4933C33.7602 43.4933 33.9891 43.2644 33.9891 42.9944C33.9891 42.56 33.4726 42.3369 33.1732 42.6422Z" fill="#FF8C75"/>
<path d="M38.8317 43.1822C37.8925 43.6636 37.7399 44.9021 38.5382 45.6241C38.7613 45.8236 39.2367 46.0173 39.5126 46.0173C40.0467 46.0173 40.6631 45.5947 40.892 45.0664C41.1209 44.5264 40.98 43.822 40.5574 43.4229C40.1113 43.0003 39.3952 42.9005 38.8317 43.1822ZM39.8648 44.1684C40.0526 44.3503 40.0526 44.6086 39.8707 44.8199C39.6769 45.0488 39.3482 45.0488 39.1545 44.8199C38.8669 44.4912 39.0782 44.0216 39.5126 44.0216C39.6593 44.0216 39.7709 44.0686 39.8648 44.1684Z" fill="#FF8C75"/>
<path d="M35.6914 43.6341C35.3509 43.9217 35.574 44.4911 36.026 44.4911C36.3605 44.4911 36.5836 44.1037 36.4544 43.7574C36.4075 43.6458 36.1316 43.4932 35.9673 43.4932C35.9027 43.4932 35.7794 43.5578 35.6914 43.6341Z" fill="#FF8C75"/>
<path d="M31.1599 44.1565C31.0308 44.2916 30.9897 44.5557 31.066 44.7553C31.0895 44.8022 31.1834 44.8903 31.2773 44.9372C31.4182 45.0077 31.4886 45.0135 31.653 44.9607C31.8878 44.8844 31.9699 44.7553 31.9699 44.4735C31.9699 44.0685 31.4417 43.8572 31.1599 44.1565Z" fill="#FF8C75"/>
<path d="M33.6663 44.6613C33.4843 44.8433 33.455 45.0077 33.5665 45.2131C33.6663 45.4068 33.7954 45.4831 34.0126 45.489C34.5233 45.4948 34.6759 44.8022 34.2181 44.5616C34.0126 44.45 33.8483 44.4794 33.6663 44.6613Z" fill="#FF8C75"/>
<path d="M35.6385 46.2051C35.5153 46.3518 35.4918 46.4281 35.5153 46.569C35.5622 46.7979 35.6972 46.9388 35.9027 46.9858C36.3723 47.0914 36.6892 46.5044 36.3429 46.164C36.1316 45.9468 35.8381 45.9644 35.6385 46.2051Z" fill="#FF8C75"/>
<path d="M38.3328 46.5456C38.0099 46.6747 37.9219 47.1032 38.1625 47.338C38.4619 47.6432 39.0137 47.4319 39.0137 47.021C39.0137 46.6864 38.6263 46.4223 38.3328 46.5456Z" fill="#FF8C75"/>
</svg>
